# xmcd CD database file
#
# Track frame offsets:
#	150
#	20955
#	38011
#	55453
#	72667
#	87268
#
# Disc length: 1393 seconds
#
# Revision: 0
# Processed by: cddbd v1.5.2PL0 Copyright (c) Steve Scherf et al.
# Submitted via: CDex 1.70beta3
#
DISCID=54056f06
DTITLE=志方あきこ - Fluff
DYEAR=2009
DGENRE=New Age
TTITLE0=うみねこのなく頃に
TTITLE1=片恋
TTITLE2=Erato
TTITLE3=Kalliope
TTITLE4=花嵐
TTITLE5=Fato
EXTD=YEAR: 2009
EXTT0=
EXTT1=
EXTT2=
EXTT3=
EXTT4=
EXTT5=
PLAYORDER=
